<svg xmlns="http://www.w3.org/2000/svg" width="220" height="220" viewBox="0 0 220 220" fill="none">
  <g stroke="currentColor" stroke-width="1.2" fill="none" stroke-linecap="round" stroke-linejoin="round">
    <!-- Central Dayak rosette -->
    <circle cx="110" cy="110" r="34" />
    <circle cx="110" cy="110" r="22" />
    <circle cx="110" cy="110" r="6" fill="currentColor"/>
    <g>
      <path d="M110 76 C124 88 124 104 110 110 C96 104 96 88 110 76 Z"/>
      <path d="M110 144 C124 132 124 116 110 110 C96 116 96 132 110 144 Z"/>
      <path d="M76 110 C88 96 104 96 110 110 C104 124 88 124 76 110 Z"/>
      <path d="M144 110 C132 96 116 96 110 110 C116 124 132 124 144 110 Z"/>
    </g>
    <!-- Tendril hooks (Borneo flora) -->
    <path d="M30 30 C50 40 60 60 50 80 C40 70 35 55 30 30 Z"/>
    <path d="M190 30 C170 40 160 60 170 80 C180 70 185 55 190 30 Z"/>
    <path d="M30 190 C50 180 60 160 50 140 C40 150 35 165 30 190 Z"/>
    <path d="M190 190 C170 180 160 160 170 140 C180 150 185 165 190 190 Z"/>
    <!-- Diagonal vines -->
    <path d="M0 110 C30 90 50 90 70 110"/>
    <path d="M150 110 C170 90 190 90 220 110"/>
    <path d="M110 0 C90 30 90 50 110 70"/>
    <path d="M110 150 C90 170 90 190 110 220"/>
    <!-- Small accents -->
    <circle cx="20" cy="110" r="3"/>
    <circle cx="200" cy="110" r="3"/>
    <circle cx="110" cy="20" r="3"/>
    <circle cx="110" cy="200" r="3"/>
    <!-- Corner buds -->
    <path d="M8 8 q12 4 16 14 q-10 -2 -16 -14z" fill="currentColor" fill-opacity="0.35"/>
    <path d="M212 8 q-12 4 -16 14 q10 -2 16 -14z" fill="currentColor" fill-opacity="0.35"/>
    <path d="M8 212 q12 -4 16 -14 q-10 2 -16 14z" fill="currentColor" fill-opacity="0.35"/>
    <path d="M212 212 q-12 -4 -16 -14 q10 2 16 14z" fill="currentColor" fill-opacity="0.35"/>
  </g>
</svg>
